<svg width="135" height="184" viewBox="0 0 135 184" fill="none" xmlns="http://www.w3.org/2000/svg">
<path d="M4.5518 0C3.92435 0 3.31096 0.186052 2.78926 0.534641C2.26756 0.883231 1.86088 1.37868 1.62077 1.95836C1.38066 2.53805 1.3179 3.17593 1.44031 3.79132C1.56272 4.40671 1.86487 4.97197 2.30854 5.41564C2.75221 5.85931 3.31744 6.16146 3.93283 6.28387C4.54822 6.40628 5.18617 6.34345 5.76585 6.10334C6.34553 5.86323 6.84095 5.45659 7.18954 4.93489C7.53813 4.41319 7.72421 3.79986 7.72421 3.17241C7.72421 2.33104 7.38999 1.5241 6.79505 0.92916C6.20011 0.334217 5.39317 0 4.5518 0Z" fill="#313131"/>
<path d="M4.5518 25.3794C3.92435 25.3794 3.31096 25.5654 2.78926 25.914C2.26756 26.2626 1.86088 26.7581 1.62077 27.3378C1.38066 27.9174 1.3179 28.5553 1.44031 29.1707C1.56272 29.7861 1.86487 30.3514 2.30854 30.795C2.75221 31.2387 3.31744 31.5409 3.93283 31.6633C4.54822 31.7857 5.18617 31.7228 5.76585 31.4827C6.34553 31.2426 6.84095 30.836 7.18954 30.3143C7.53813 29.7926 7.72421 29.1793 7.72421 28.5518C7.72421 27.7104 7.38999 26.9035 6.79505 26.3086C6.20011 25.7136 5.39317 25.3794 4.5518 25.3794Z" fill="#313131"/>
<path d="M4.5518 50.7585C3.92435 50.7585 3.31096 50.9446 2.78926 51.2932C2.26756 51.6418 1.86088 52.1372 1.62077 52.7169C1.38066 53.2965 1.3179 53.9344 1.44031 54.5498C1.56272 55.1652 1.86487 55.7304 2.30854 56.1741C2.75221 56.6178 3.31744 56.9199 3.93283 57.0423C4.54822 57.1647 5.18617 57.1019 5.76585 56.8618C6.34553 56.6217 6.84095 56.215 7.18954 55.6934C7.53813 55.1717 7.72421 54.5583 7.72421 53.9309C7.72421 53.0895 7.38999 52.2826 6.79505 51.6877C6.20011 51.0928 5.39317 50.7585 4.5518 50.7585Z" fill="#313131"/>
<path d="M4.5518 76.1379C3.92435 76.1379 3.31096 76.324 2.78926 76.6726C2.26756 77.0212 1.86088 77.5166 1.62077 78.0963C1.38066 78.676 1.3179 79.3139 1.44031 79.9293C1.56272 80.5446 1.86487 81.1099 2.30854 81.5536C2.75221 81.9972 3.31744 82.2994 3.93283 82.4218C4.54822 82.5442 5.18617 82.4814 5.76585 82.2413C6.34553 82.0012 6.84095 81.5945 7.18954 81.0728C7.53813 80.5511 7.72421 79.9378 7.72421 79.3104C7.72421 78.469 7.38999 77.662 6.79505 77.0671C6.20011 76.4722 5.39317 76.1379 4.5518 76.1379Z" fill="#313131"/>
<path d="M4.5518 101.517C3.92435 101.517 3.31096 101.703 2.78926 102.052C2.26756 102.401 1.86088 102.896 1.62077 103.476C1.38066 104.055 1.3179 104.693 1.44031 105.309C1.56272 105.924 1.86487 106.489 2.30854 106.933C2.75221 107.377 3.31744 107.679 3.93283 107.801C4.54822 107.924 5.18617 107.861 5.76585 107.621C6.34553 107.381 6.84095 106.974 7.18954 106.452C7.53813 105.931 7.72421 105.317 7.72421 104.69C7.72421 103.848 7.38999 103.041 6.79505 102.446C6.20011 101.852 5.39317 101.517 4.5518 101.517Z" fill="#313131"/>
<path d="M4.5518 126.896C3.92435 126.896 3.31096 127.083 2.78926 127.431C2.26756 127.78 1.86088 128.275 1.62077 128.855C1.38066 129.434 1.3179 130.072 1.44031 130.688C1.56272 131.303 1.86487 131.868 2.30854 132.312C2.75221 132.756 3.31744 133.058 3.93283 133.18C4.54822 133.303 5.18617 133.24 5.76585 133C6.34553 132.76 6.84095 132.353 7.18954 131.831C7.53813 131.31 7.72421 130.696 7.72421 130.069C7.72421 129.227 7.38999 128.421 6.79505 127.826C6.20011 127.231 5.39317 126.896 4.5518 126.896Z" fill="#313131"/>
<path d="M4.5518 152.276C3.92435 152.276 3.31096 152.462 2.78926 152.811C2.26756 153.159 1.86088 153.655 1.62077 154.234C1.38066 154.814 1.3179 155.452 1.44031 156.067C1.56272 156.683 1.86487 157.248 2.30854 157.692C2.75221 158.135 3.31744 158.437 3.93283 158.56C4.54822 158.682 5.18617 158.619 5.76585 158.379C6.34553 158.139 6.84095 157.732 7.18954 157.211C7.53813 156.689 7.72421 156.076 7.72421 155.448C7.72421 154.607 7.38999 153.8 6.79505 153.205C6.20011 152.61 5.39317 152.276 4.5518 152.276Z" fill="#313131"/>
<path d="M4.5518 177.655C3.92435 177.655 3.31096 177.841 2.78926 178.19C2.26756 178.539 1.86088 179.034 1.62077 179.614C1.38066 180.193 1.3179 180.831 1.44031 181.447C1.56272 182.062 1.86487 182.627 2.30854 183.071C2.75221 183.515 3.31744 183.817 3.93283 183.939C4.54822 184.062 5.18617 183.999 5.76585 183.759C6.34553 183.519 6.84095 183.112 7.18954 182.59C7.53813 182.068 7.72421 181.455 7.72421 180.828C7.72421 179.986 7.38999 179.179 6.79505 178.584C6.20011 177.989 5.39317 177.655 4.5518 177.655Z" fill="#313131"/>
<path d="M29.9311 0C29.3036 0 28.6902 0.186052 28.1685 0.534641C27.6468 0.883231 27.2402 1.37868 27 1.95836C26.7599 2.53805 26.6972 3.17593 26.8196 3.79132C26.942 4.40671 27.2441 4.97197 27.6878 5.41564C28.1315 5.85931 28.6967 6.16146 29.3121 6.28387C29.9275 6.40628 30.5654 6.34345 31.1451 6.10334C31.7248 5.86323 32.2202 5.45659 32.5688 4.93489C32.9174 4.41319 33.1035 3.79986 33.1035 3.17241C33.1035 2.33104 32.7693 1.5241 32.1743 0.92916C31.5794 0.334217 30.7724 0 29.9311 0Z" fill="#313131"/>
<path d="M29.9311 25.3794C29.3036 25.3794 28.6902 25.5654 28.1685 25.914C27.6468 26.2626 27.2402 26.7581 27 27.3378C26.7599 27.9174 26.6972 28.5553 26.8196 29.1707C26.942 29.7861 27.2441 30.3514 27.6878 30.795C28.1315 31.2387 28.6967 31.5409 29.3121 31.6633C29.9275 31.7857 30.5654 31.7228 31.1451 31.4827C31.7248 31.2426 32.2202 30.836 32.5688 30.3143C32.9174 29.7926 33.1035 29.1793 33.1035 28.5518C33.1035 27.7104 32.7693 26.9035 32.1743 26.3086C31.5794 25.7136 30.7724 25.3794 29.9311 25.3794Z" fill="#313131"/>
<path d="M29.9311 50.7585C29.3036 50.7585 28.6902 50.9446 28.1685 51.2932C27.6468 51.6418 27.2402 52.1372 27 52.7169C26.7599 53.2965 26.6972 53.9344 26.8196 54.5498C26.942 55.1652 27.2441 55.7304 27.6878 56.1741C28.1315 56.6178 28.6967 56.9199 29.3121 57.0423C29.9275 57.1647 30.5654 57.1019 31.1451 56.8618C31.7248 56.6217 32.2202 56.215 32.5688 55.6934C32.9174 55.1717 33.1035 54.5583 33.1035 53.9309C33.1035 53.0895 32.7693 52.2826 32.1743 51.6877C31.5794 51.0928 30.7724 50.7585 29.9311 50.7585Z" fill="#313131"/>
<path d="M29.9311 76.1379C29.3036 76.1379 28.6902 76.324 28.1685 76.6726C27.6468 77.0212 27.2402 77.5166 27 78.0963C26.7599 78.676 26.6972 79.3139 26.8196 79.9293C26.942 80.5446 27.2441 81.1099 27.6878 81.5536C28.1315 81.9972 28.6967 82.2994 29.3121 82.4218C29.9275 82.5442 30.5654 82.4814 31.1451 82.2413C31.7248 82.0012 32.2202 81.5945 32.5688 81.0728C32.9174 80.5511 33.1035 79.9378 33.1035 79.3104C33.1035 78.469 32.7693 77.662 32.1743 77.0671C31.5794 76.4722 30.7724 76.1379 29.9311 76.1379Z" fill="#313131"/>
<path d="M29.9311 101.517C29.3036 101.517 28.6902 101.703 28.1685 102.052C27.6468 102.401 27.2402 102.896 27 103.476C26.7599 104.055 26.6972 104.693 26.8196 105.309C26.942 105.924 27.2441 106.489 27.6878 106.933C28.1315 107.377 28.6967 107.679 29.3121 107.801C29.9275 107.924 30.5654 107.861 31.1451 107.621C31.7248 107.381 32.2202 106.974 32.5688 106.452C32.9174 105.931 33.1035 105.317 33.1035 104.69C33.1035 103.848 32.7693 103.041 32.1743 102.446C31.5794 101.852 30.7724 101.517 29.9311 101.517Z" fill="#313131"/>
<path d="M29.9311 126.896C29.3036 126.896 28.6902 127.083 28.1685 127.431C27.6468 127.78 27.2402 128.275 27 128.855C26.7599 129.434 26.6972 130.072 26.8196 130.688C26.942 131.303 27.2441 131.868 27.6878 132.312C28.1315 132.756 28.6967 133.058 29.3121 133.18C29.9275 133.303 30.5654 133.24 31.1451 133C31.7248 132.76 32.2202 132.353 32.5688 131.831C32.9174 131.31 33.1035 130.696 33.1035 130.069C33.1035 129.227 32.7693 128.421 32.1743 127.826C31.5794 127.231 30.7724 126.896 29.9311 126.896Z" fill="#313131"/>
<path d="M29.9311 152.276C29.3036 152.276 28.6902 152.462 28.1685 152.811C27.6468 153.159 27.2402 153.655 27 154.234C26.7599 154.814 26.6972 155.452 26.8196 156.067C26.942 156.683 27.2441 157.248 27.6878 157.692C28.1315 158.135 28.6967 158.437 29.3121 158.56C29.9275 158.682 30.5654 158.619 31.1451 158.379C31.7248 158.139 32.2202 157.732 32.5688 157.211C32.9174 156.689 33.1035 156.076 33.1035 155.448C33.1035 154.607 32.7693 153.8 32.1743 153.205C31.5794 152.61 30.7724 152.276 29.9311 152.276Z" fill="#313131"/>
<path d="M29.9311 177.655C29.3036 177.655 28.6902 177.841 28.1685 178.19C27.6468 178.539 27.2402 179.034 27 179.614C26.7599 180.193 26.6972 180.831 26.8196 181.447C26.942 182.062 27.2441 182.627 27.6878 183.071C28.1315 183.515 28.6967 183.817 29.3121 183.939C29.9275 184.062 30.5654 183.999 31.1451 183.759C31.7248 183.519 32.2202 183.112 32.5688 182.59C32.9174 182.068 33.1035 181.455 33.1035 180.828C33.1035 179.986 32.7693 179.179 32.1743 178.584C31.5794 177.989 30.7724 177.655 29.9311 177.655Z" fill="#313131"/>
<path d="M55.3104 0C54.683 0 54.0696 0.186052 53.5479 0.534641C53.0262 0.883231 52.6195 1.37868 52.3794 1.95836C52.1393 2.53805 52.0765 3.17593 52.1989 3.79132C52.3213 4.40671 52.6235 4.97197 53.0671 5.41564C53.5108 5.85931 54.076 6.16146 54.6914 6.28387C55.3068 6.40628 55.9448 6.34345 56.5245 6.10334C57.1041 5.86323 57.5996 5.45659 57.9481 4.93489C58.2967 4.41319 58.4828 3.79986 58.4828 3.17241C58.4828 2.33104 58.1486 1.5241 57.5537 0.92916C56.9587 0.334217 56.1518 0 55.3104 0Z" fill="#313131"/>
<path d="M55.3104 25.3794C54.683 25.3794 54.0696 25.5654 53.5479 25.914C53.0262 26.2626 52.6195 26.7581 52.3794 27.3378C52.1393 27.9174 52.0765 28.5553 52.1989 29.1707C52.3213 29.7861 52.6235 30.3514 53.0671 30.795C53.5108 31.2387 54.076 31.5409 54.6914 31.6633C55.3068 31.7857 55.9448 31.7228 56.5245 31.4827C57.1041 31.2426 57.5996 30.836 57.9481 30.3143C58.2967 29.7926 58.4828 29.1793 58.4828 28.5518C58.4828 27.7104 58.1486 26.9035 57.5537 26.3086C56.9587 25.7136 56.1518 25.3794 55.3104 25.3794Z" fill="#313131"/>
<path d="M55.3104 50.7585C54.683 50.7585 54.0696 50.9446 53.5479 51.2932C53.0262 51.6418 52.6195 52.1372 52.3794 52.7169C52.1393 53.2965 52.0765 53.9344 52.1989 54.5498C52.3213 55.1652 52.6235 55.7304 53.0671 56.1741C53.5108 56.6178 54.076 56.9199 54.6914 57.0423C55.3068 57.1647 55.9448 57.1019 56.5245 56.8618C57.1041 56.6217 57.5996 56.215 57.9481 55.6934C58.2967 55.1717 58.4828 54.5583 58.4828 53.9309C58.4828 53.0895 58.1486 52.2826 57.5537 51.6877C56.9587 51.0928 56.1518 50.7585 55.3104 50.7585Z" fill="#313131"/>
<path d="M55.3104 76.1379C54.683 76.1379 54.0696 76.324 53.5479 76.6726C53.0262 77.0212 52.6195 77.5166 52.3794 78.0963C52.1393 78.676 52.0765 79.3139 52.1989 79.9293C52.3213 80.5446 52.6235 81.1099 53.0671 81.5536C53.5108 81.9972 54.076 82.2994 54.6914 82.4218C55.3068 82.5442 55.9448 82.4814 56.5245 82.2413C57.1041 82.0012 57.5996 81.5945 57.9481 81.0728C58.2967 80.5511 58.4828 79.9378 58.4828 79.3104C58.4828 78.469 58.1486 77.662 57.5537 77.0671C56.9587 76.4722 56.1518 76.1379 55.3104 76.1379Z" fill="#313131"/>
<path d="M55.3104 101.517C54.683 101.517 54.0696 101.703 53.5479 102.052C53.0262 102.401 52.6195 102.896 52.3794 103.476C52.1393 104.055 52.0765 104.693 52.1989 105.309C52.3213 105.924 52.6235 106.489 53.0671 106.933C53.5108 107.377 54.076 107.679 54.6914 107.801C55.3068 107.924 55.9448 107.861 56.5245 107.621C57.1041 107.381 57.5996 106.974 57.9481 106.452C58.2967 105.931 58.4828 105.317 58.4828 104.69C58.4828 103.848 58.1486 103.041 57.5537 102.446C56.9587 101.852 56.1518 101.517 55.3104 101.517Z" fill="#313131"/>
<path d="M55.3104 126.896C54.683 126.896 54.0696 127.083 53.5479 127.431C53.0262 127.78 52.6195 128.275 52.3794 128.855C52.1393 129.434 52.0765 130.072 52.1989 130.688C52.3213 131.303 52.6235 131.868 53.0671 132.312C53.5108 132.756 54.076 133.058 54.6914 133.18C55.3068 133.303 55.9448 133.24 56.5245 133C57.1041 132.76 57.5996 132.353 57.9481 131.831C58.2967 131.31 58.4828 130.696 58.4828 130.069C58.4828 129.227 58.1486 128.421 57.5537 127.826C56.9587 127.231 56.1518 126.896 55.3104 126.896Z" fill="#313131"/>
<path d="M55.3104 152.276C54.683 152.276 54.0696 152.462 53.5479 152.811C53.0262 153.159 52.6195 153.655 52.3794 154.234C52.1393 154.814 52.0765 155.452 52.1989 156.067C52.3213 156.683 52.6235 157.248 53.0671 157.692C53.5108 158.135 54.076 158.437 54.6914 158.56C55.3068 158.682 55.9448 158.619 56.5245 158.379C57.1041 158.139 57.5996 157.732 57.9481 157.211C58.2967 156.689 58.4828 156.076 58.4828 155.448C58.4828 154.607 58.1486 153.8 57.5537 153.205C56.9587 152.61 56.1518 152.276 55.3104 152.276Z" fill="#313131"/>
<path d="M55.3104 177.655C54.683 177.655 54.0696 177.841 53.5479 178.19C53.0262 178.539 52.6195 179.034 52.3794 179.614C52.1393 180.193 52.0765 180.831 52.1989 181.447C52.3213 182.062 52.6235 182.627 53.0671 183.071C53.5108 183.515 54.076 183.817 54.6914 183.939C55.3068 184.062 55.9448 183.999 56.5245 183.759C57.1041 183.519 57.5996 183.112 57.9481 182.59C58.2967 182.068 58.4828 181.455 58.4828 180.828C58.4828 179.986 58.1486 179.179 57.5537 178.584C56.9587 177.989 56.1518 177.655 55.3104 177.655Z" fill="#313131"/>
<path d="M80.6897 0C80.0622 0 79.4488 0.186052 78.9271 0.534641C78.4054 0.883231 77.9988 1.37868 77.7586 1.95836C77.5185 2.53805 77.4558 3.17593 77.5782 3.79132C77.7006 4.40671 78.0027 4.97197 78.4464 5.41564C78.8901 5.85931 79.4553 6.16146 80.0707 6.28387C80.6861 6.40628 81.324 6.34345 81.9037 6.10334C82.4834 5.86323 82.9788 5.45659 83.3274 4.93489C83.676 4.41319 83.8621 3.79986 83.8621 3.17241C83.8621 2.33104 83.5279 1.5241 82.9329 0.92916C82.338 0.334217 81.5311 0 80.6897 0Z" fill="#313131"/>
<path d="M80.6897 25.3794C80.0622 25.3794 79.4488 25.5654 78.9271 25.914C78.4054 26.2626 77.9988 26.7581 77.7586 27.3378C77.5185 27.9174 77.4558 28.5553 77.5782 29.1707C77.7006 29.7861 78.0027 30.3514 78.4464 30.795C78.8901 31.2387 79.4553 31.5409 80.0707 31.6633C80.6861 31.7857 81.324 31.7228 81.9037 31.4827C82.4834 31.2426 82.9788 30.836 83.3274 30.3143C83.676 29.7926 83.8621 29.1793 83.8621 28.5518C83.8621 27.7104 83.5279 26.9035 82.9329 26.3086C82.338 25.7136 81.5311 25.3794 80.6897 25.3794Z" fill="#313131"/>
<path d="M80.6897 50.7585C80.0622 50.7585 79.4488 50.9446 78.9271 51.2932C78.4054 51.6418 77.9988 52.1372 77.7586 52.7169C77.5185 53.2965 77.4558 53.9344 77.5782 54.5498C77.7006 55.1652 78.0027 55.7304 78.4464 56.1741C78.8901 56.6178 79.4553 56.9199 80.0707 57.0423C80.6861 57.1647 81.324 57.1019 81.9037 56.8618C82.4834 56.6217 82.9788 56.215 83.3274 55.6934C83.676 55.1717 83.8621 54.5583 83.8621 53.9309C83.8621 53.0895 83.5279 52.2826 82.9329 51.6877C82.338 51.0928 81.5311 50.7585 80.6897 50.7585Z" fill="#313131"/>
<path d="M80.6897 76.1379C80.0622 76.1379 79.4488 76.324 78.9271 76.6726C78.4054 77.0212 77.9988 77.5166 77.7586 78.0963C77.5185 78.676 77.4558 79.3139 77.5782 79.9293C77.7006 80.5446 78.0027 81.1099 78.4464 81.5536C78.8901 81.9972 79.4553 82.2994 80.0707 82.4218C80.6861 82.5442 81.324 82.4814 81.9037 82.2413C82.4834 82.0012 82.9788 81.5945 83.3274 81.0728C83.676 80.5511 83.8621 79.9378 83.8621 79.3104C83.8621 78.469 83.5279 77.662 82.9329 77.0671C82.338 76.4722 81.5311 76.1379 80.6897 76.1379Z" fill="#313131"/>
<path d="M80.6897 101.517C80.0622 101.517 79.4488 101.703 78.9271 102.052C78.4054 102.401 77.9988 102.896 77.7586 103.476C77.5185 104.055 77.4558 104.693 77.5782 105.309C77.7006 105.924 78.0027 106.489 78.4464 106.933C78.8901 107.377 79.4553 107.679 80.0707 107.801C80.6861 107.924 81.324 107.861 81.9037 107.621C82.4834 107.381 82.9788 106.974 83.3274 106.452C83.676 105.931 83.8621 105.317 83.8621 104.69C83.8621 103.848 83.5279 103.041 82.9329 102.446C82.338 101.852 81.5311 101.517 80.6897 101.517Z" fill="#313131"/>
<path d="M80.6897 126.896C80.0622 126.896 79.4488 127.083 78.9271 127.431C78.4054 127.78 77.9988 128.275 77.7586 128.855C77.5185 129.434 77.4558 130.072 77.5782 130.688C77.7006 131.303 78.0027 131.868 78.4464 132.312C78.8901 132.756 79.4553 133.058 80.0707 133.18C80.6861 133.303 81.324 133.24 81.9037 133C82.4834 132.76 82.9788 132.353 83.3274 131.831C83.676 131.31 83.8621 130.696 83.8621 130.069C83.8621 129.227 83.5279 128.421 82.9329 127.826C82.338 127.231 81.5311 126.896 80.6897 126.896Z" fill="#313131"/>
<path d="M80.6897 152.276C80.0622 152.276 79.4488 152.462 78.9271 152.811C78.4054 153.159 77.9988 153.655 77.7586 154.234C77.5185 154.814 77.4558 155.452 77.5782 156.067C77.7006 156.683 78.0027 157.248 78.4464 157.692C78.8901 158.135 79.4553 158.437 80.0707 158.56C80.6861 158.682 81.324 158.619 81.9037 158.379C82.4834 158.139 82.9788 157.732 83.3274 157.211C83.676 156.689 83.8621 156.076 83.8621 155.448C83.8621 154.607 83.5279 153.8 82.9329 153.205C82.338 152.61 81.5311 152.276 80.6897 152.276Z" fill="#313131"/>
<path d="M80.6897 177.655C80.0622 177.655 79.4488 177.841 78.9271 178.19C78.4054 178.539 77.9988 179.034 77.7586 179.614C77.5185 180.193 77.4558 180.831 77.5782 181.447C77.7006 182.062 78.0027 182.627 78.4464 183.071C78.8901 183.515 79.4553 183.817 80.0707 183.939C80.6861 184.062 81.324 183.999 81.9037 183.759C82.4834 183.519 82.9788 183.112 83.3274 182.59C83.676 182.068 83.8621 181.455 83.8621 180.828C83.8621 179.986 83.5279 179.179 82.9329 178.584C82.338 177.989 81.5311 177.655 80.6897 177.655Z" fill="#313131"/>
<path d="M106.069 0C105.442 0 104.828 0.186052 104.306 0.534641C103.785 0.883231 103.378 1.37868 103.138 1.95836C102.898 2.53805 102.835 3.17593 102.958 3.79132C103.08 4.40671 103.382 4.97197 103.826 5.41564C104.269 5.85931 104.835 6.16146 105.45 6.28387C106.065 6.40628 106.703 6.34345 107.283 6.10334C107.863 5.86323 108.358 5.45659 108.707 4.93489C109.055 4.41319 109.241 3.79986 109.241 3.17241C109.241 2.33104 108.907 1.5241 108.312 0.92916C107.717 0.334217 106.91 0 106.069 0Z" fill="#313131"/>
<path d="M106.069 25.3794C105.442 25.3794 104.828 25.5654 104.306 25.914C103.785 26.2626 103.378 26.7581 103.138 27.3378C102.898 27.9174 102.835 28.5553 102.958 29.1707C103.08 29.7861 103.382 30.3514 103.826 30.795C104.269 31.2387 104.835 31.5409 105.45 31.6633C106.065 31.7857 106.703 31.7228 107.283 31.4827C107.863 31.2426 108.358 30.836 108.707 30.3143C109.055 29.7926 109.241 29.1793 109.241 28.5518C109.241 27.7104 108.907 26.9035 108.312 26.3086C107.717 25.7136 106.91 25.3794 106.069 25.3794Z" fill="#313131"/>
<path d="M106.069 50.7585C105.442 50.7585 104.828 50.9446 104.306 51.2932C103.785 51.6418 103.378 52.1372 103.138 52.7169C102.898 53.2965 102.835 53.9344 102.958 54.5498C103.08 55.1652 103.382 55.7304 103.826 56.1741C104.269 56.6178 104.835 56.9199 105.45 57.0423C106.065 57.1647 106.703 57.1019 107.283 56.8618C107.863 56.6217 108.358 56.215 108.707 55.6934C109.055 55.1717 109.241 54.5583 109.241 53.9309C109.241 53.0895 108.907 52.2826 108.312 51.6877C107.717 51.0928 106.91 50.7585 106.069 50.7585Z" fill="#313131"/>
<path d="M106.069 76.1379C105.442 76.1379 104.828 76.324 104.306 76.6726C103.785 77.0212 103.378 77.5166 103.138 78.0963C102.898 78.676 102.835 79.3139 102.958 79.9293C103.08 80.5446 103.382 81.1099 103.826 81.5536C104.269 81.9972 104.835 82.2994 105.45 82.4218C106.065 82.5442 106.703 82.4814 107.283 82.2413C107.863 82.0012 108.358 81.5945 108.707 81.0728C109.055 80.5511 109.241 79.9378 109.241 79.3104C109.241 78.469 108.907 77.662 108.312 77.0671C107.717 76.4722 106.91 76.1379 106.069 76.1379Z" fill="#313131"/>
<path d="M106.069 101.517C105.442 101.517 104.828 101.703 104.306 102.052C103.785 102.401 103.378 102.896 103.138 103.476C102.898 104.055 102.835 104.693 102.958 105.309C103.08 105.924 103.382 106.489 103.826 106.933C104.269 107.377 104.835 107.679 105.45 107.801C106.065 107.924 106.703 107.861 107.283 107.621C107.863 107.381 108.358 106.974 108.707 106.452C109.055 105.931 109.241 105.317 109.241 104.69C109.241 103.848 108.907 103.041 108.312 102.446C107.717 101.852 106.91 101.517 106.069 101.517Z" fill="#313131"/>
<path d="M106.069 126.896C105.442 126.896 104.828 127.083 104.306 127.431C103.785 127.78 103.378 128.275 103.138 128.855C102.898 129.434 102.835 130.072 102.958 130.688C103.08 131.303 103.382 131.868 103.826 132.312C104.269 132.756 104.835 133.058 105.45 133.18C106.065 133.303 106.703 133.24 107.283 133C107.863 132.76 108.358 132.353 108.707 131.831C109.055 131.31 109.241 130.696 109.241 130.069C109.241 129.227 108.907 128.421 108.312 127.826C107.717 127.231 106.91 126.896 106.069 126.896Z" fill="#313131"/>
<path d="M106.069 152.276C105.442 152.276 104.828 152.462 104.306 152.811C103.785 153.159 103.378 153.655 103.138 154.234C102.898 154.814 102.835 155.452 102.958 156.067C103.08 156.683 103.382 157.248 103.826 157.692C104.269 158.135 104.835 158.437 105.45 158.56C106.065 158.682 106.703 158.619 107.283 158.379C107.863 158.139 108.358 157.732 108.707 157.211C109.055 156.689 109.241 156.076 109.241 155.448C109.241 154.607 108.907 153.8 108.312 153.205C107.717 152.61 106.91 152.276 106.069 152.276Z" fill="#313131"/>
<path d="M106.069 177.655C105.442 177.655 104.828 177.841 104.306 178.19C103.785 178.539 103.378 179.034 103.138 179.614C102.898 180.193 102.835 180.831 102.958 181.447C103.08 182.062 103.382 182.627 103.826 183.071C104.269 183.515 104.835 183.817 105.45 183.939C106.065 184.062 106.703 183.999 107.283 183.759C107.863 183.519 108.358 183.112 108.707 182.59C109.055 182.068 109.241 181.455 109.241 180.828C109.241 179.986 108.907 179.179 108.312 178.584C107.717 177.989 106.91 177.655 106.069 177.655Z" fill="#313131"/>
<path d="M131.448 0C130.821 0 130.208 0.186052 129.686 0.534641C129.164 0.883231 128.757 1.37868 128.517 1.95836C128.277 2.53805 128.214 3.17593 128.337 3.79132C128.459 4.40671 128.761 4.97197 129.205 5.41564C129.649 5.85931 130.214 6.16146 130.829 6.28387C131.445 6.40628 132.083 6.34345 132.662 6.10334C133.242 5.86323 133.737 5.45659 134.086 4.93489C134.435 4.41319 134.621 3.79986 134.621 3.17241C134.621 2.33104 134.287 1.5241 133.692 0.92916C133.097 0.334217 132.29 0 131.448 0Z" fill="#313131"/>
<path d="M131.448 25.3794C130.821 25.3794 130.208 25.5654 129.686 25.914C129.164 26.2626 128.757 26.7581 128.517 27.3378C128.277 27.9174 128.214 28.5553 128.337 29.1707C128.459 29.7861 128.761 30.3514 129.205 30.795C129.649 31.2387 130.214 31.5409 130.829 31.6633C131.445 31.7857 132.083 31.7228 132.662 31.4827C133.242 31.2426 133.737 30.836 134.086 30.3143C134.435 29.7926 134.621 29.1793 134.621 28.5518C134.621 27.7104 134.287 26.9035 133.692 26.3086C133.097 25.7136 132.29 25.3794 131.448 25.3794Z" fill="#313131"/>
<path d="M131.448 50.7585C130.821 50.7585 130.208 50.9446 129.686 51.2932C129.164 51.6418 128.757 52.1372 128.517 52.7169C128.277 53.2965 128.214 53.9344 128.337 54.5498C128.459 55.1652 128.761 55.7304 129.205 56.1741C129.649 56.6178 130.214 56.9199 130.829 57.0423C131.445 57.1647 132.083 57.1019 132.662 56.8618C133.242 56.6217 133.737 56.215 134.086 55.6934C134.435 55.1717 134.621 54.5583 134.621 53.9309C134.621 53.0895 134.287 52.2826 133.692 51.6877C133.097 51.0928 132.29 50.7585 131.448 50.7585Z" fill="#313131"/>
<path d="M131.448 76.1379C130.821 76.1379 130.208 76.324 129.686 76.6726C129.164 77.0212 128.757 77.5166 128.517 78.0963C128.277 78.676 128.214 79.3139 128.337 79.9293C128.459 80.5446 128.761 81.1099 129.205 81.5536C129.649 81.9972 130.214 82.2994 130.829 82.4218C131.445 82.5442 132.083 82.4814 132.662 82.2413C133.242 82.0012 133.737 81.5945 134.086 81.0728C134.435 80.5511 134.621 79.9378 134.621 79.3104C134.621 78.469 134.287 77.662 133.692 77.0671C133.097 76.4722 132.29 76.1379 131.448 76.1379Z" fill="#313131"/>
<path d="M131.448 101.517C130.821 101.517 130.208 101.703 129.686 102.052C129.164 102.401 128.757 102.896 128.517 103.476C128.277 104.055 128.214 104.693 128.337 105.309C128.459 105.924 128.761 106.489 129.205 106.933C129.649 107.377 130.214 107.679 130.829 107.801C131.445 107.924 132.083 107.861 132.662 107.621C133.242 107.381 133.737 106.974 134.086 106.452C134.435 105.931 134.621 105.317 134.621 104.69C134.621 103.848 134.287 103.041 133.692 102.446C133.097 101.852 132.29 101.517 131.448 101.517Z" fill="#313131"/>
<path d="M131.448 126.896C130.821 126.896 130.208 127.083 129.686 127.431C129.164 127.78 128.757 128.275 128.517 128.855C128.277 129.434 128.214 130.072 128.337 130.688C128.459 131.303 128.761 131.868 129.205 132.312C129.649 132.756 130.214 133.058 130.829 133.18C131.445 133.303 132.083 133.24 132.662 133C133.242 132.76 133.737 132.353 134.086 131.831C134.435 131.31 134.621 130.696 134.621 130.069C134.621 129.227 134.287 128.421 133.692 127.826C133.097 127.231 132.29 126.896 131.448 126.896Z" fill="#313131"/>
<path d="M131.448 152.276C130.821 152.276 130.208 152.462 129.686 152.811C129.164 153.159 128.757 153.655 128.517 154.234C128.277 154.814 128.214 155.452 128.337 156.067C128.459 156.683 128.761 157.248 129.205 157.692C129.649 158.135 130.214 158.437 130.829 158.56C131.445 158.682 132.083 158.619 132.662 158.379C133.242 158.139 133.737 157.732 134.086 157.211C134.435 156.689 134.621 156.076 134.621 155.448C134.621 154.607 134.287 153.8 133.692 153.205C133.097 152.61 132.29 152.276 131.448 152.276Z" fill="#313131"/>
<path d="M131.448 177.655C130.821 177.655 130.208 177.841 129.686 178.19C129.164 178.539 128.757 179.034 128.517 179.614C128.277 180.193 128.214 180.831 128.337 181.447C128.459 182.062 128.761 182.627 129.205 183.071C129.649 183.515 130.214 183.817 130.829 183.939C131.445 184.062 132.083 183.999 132.662 183.759C133.242 183.519 133.737 183.112 134.086 182.59C134.435 182.068 134.621 181.455 134.621 180.828C134.621 179.986 134.287 179.179 133.692 178.584C133.097 177.989 132.29 177.655 131.448 177.655Z" fill="#313131"/>
</svg>
